<svg width="3283" height="107" viewBox="0 0 3283 107" fill="none" xmlns="http://www.w3.org/2000/svg">
<path d="M1148.27 0.274259C1148.27 0.274259 1043.71 62.5903 958.975 63.0526C872.816 63.5226 765.521 0.27417 765.521 0.27417C765.521 0.27417 660.966 62.5902 576.228 63.0525C490.069 63.5225 382.774 0.27417 382.774 0.27417C382.774 0.27417 278.218 62.5902 193.48 63.0525C107.321 63.5226 0.0258789 0.27417 0.0258789 0.27417V106.655H3255.46C3255.46 106.655 3316.41 63.0526 3255.46 63.0526C3202.43 63.0526 3143.1 40.2755 3104.29 22.1606C3077.68 9.73796 3046.33 9.75039 3019.76 22.2495C2981.51 40.2392 2923.55 62.7752 2872.71 63.0526C2820.5 63.3374 2760.52 40.2208 2721.37 21.9618C2694.87 9.60481 2663.69 9.6897 2637.23 22.1444C2598.99 40.1512 2540.9 62.7747 2489.97 63.0526C2437.75 63.3374 2377.78 40.2208 2338.62 21.9618C2312.12 9.60481 2280.94 9.6897 2254.49 22.1444C2216.24 40.1512 2158.15 62.7747 2107.22 63.0526C2055 63.3374 1995.03 40.2208 1955.87 21.9618C1929.37 9.60483 1898.19 9.68975 1871.74 22.1444C1833.49 40.1513 1775.4 62.7747 1724.47 63.0526C1672.26 63.3375 1612.28 40.2208 1573.13 21.9618C1546.63 9.60483 1515.44 9.68973 1488.99 22.1444C1450.75 40.1513 1392.66 62.7747 1341.72 63.0526C1255.56 63.5226 1148.27 0.274259 1148.27 0.274259Z" fill="#212121"/>
</svg>
