<svg width="61" height="49" viewBox="0 0 61 49" fill="none" xmlns="http://www.w3.org/2000/svg">
<g filter="url(#filter0_d_174_396)">
<path d="M48.6944 4.2816C48.6798 4.25332 48.6557 4.23117 48.6262 4.2191C45.2223 2.65736 41.6303 1.54373 37.9399 0.906052C37.9064 0.899819 37.8718 0.904315 37.8409 0.918902C37.8101 0.933489 37.7847 0.957424 37.7682 0.987302C37.2791 1.87506 36.8351 2.78694 36.4379 3.71945C32.4599 3.1156 28.4135 3.1156 24.4355 3.71945C24.0357 2.78457 23.5845 1.87247 23.0842 0.987302C23.067 0.958073 23.0414 0.93469 23.0108 0.920198C22.9802 0.905705 22.9459 0.900776 22.9124 0.906052C19.2216 1.54239 15.6294 2.65611 12.2259 4.21919C12.1968 4.23154 12.1722 4.25263 12.1556 4.27954C5.34939 14.4437 3.48492 24.3579 4.39957 34.1494C4.40214 34.1734 4.40952 34.1966 4.42125 34.2177C4.43298 34.2388 4.44884 34.2573 4.46787 34.2721C8.43105 37.2066 12.8639 39.4464 17.5773 40.8962C17.6105 40.9061 17.6459 40.9057 17.6789 40.8949C17.7118 40.8841 17.7406 40.8635 17.7615 40.8358C18.7738 39.4584 19.6708 37.9998 20.4434 36.4749C20.454 36.454 20.46 36.431 20.4611 36.4076C20.4623 36.3842 20.4584 36.3608 20.4498 36.3389C20.4412 36.3171 20.4281 36.2973 20.4113 36.2809C20.3945 36.2645 20.3744 36.2519 20.3524 36.2438C18.9379 35.7026 17.5685 35.0502 16.257 34.2927C16.2332 34.2787 16.2132 34.259 16.1988 34.2354C16.1843 34.2119 16.1759 34.1851 16.1743 34.1575C16.1727 34.1299 16.1778 34.1024 16.1894 34.0773C16.2009 34.0522 16.2185 34.0303 16.2405 34.0136C16.5157 33.8074 16.791 33.5929 17.0538 33.3763C17.0771 33.3571 17.1054 33.3448 17.1354 33.3407C17.1653 33.3367 17.1958 33.3411 17.2234 33.3535C25.8153 37.2746 35.1172 37.2746 43.6074 33.3535C43.6351 33.3403 43.6659 33.3353 43.6964 33.339C43.7268 33.3427 43.7555 33.3549 43.7792 33.3743C44.0421 33.5909 44.3174 33.8074 44.5946 34.0136C44.6167 34.0301 44.6344 34.0518 44.6461 34.0769C44.6579 34.1019 44.6633 34.1294 44.6618 34.157C44.6604 34.1846 44.6522 34.2114 44.638 34.235C44.6237 34.2587 44.6038 34.2785 44.5801 34.2927C43.2717 35.0566 41.901 35.7086 40.4828 36.2418C40.4608 36.2502 40.4408 36.2631 40.4241 36.2797C40.4074 36.2964 40.3944 36.3164 40.386 36.3384C40.3776 36.3604 40.3739 36.3839 40.3752 36.4074C40.3765 36.431 40.3827 36.454 40.3935 36.4749C41.179 37.9913 42.0747 39.4481 43.0733 40.8334C43.0936 40.8618 43.1223 40.8831 43.1554 40.8944C43.1884 40.9056 43.2242 40.9061 43.2575 40.8959C47.9794 39.4511 52.42 37.211 56.3881 34.2721C56.4074 34.258 56.4235 34.24 56.4353 34.2191C56.4471 34.1983 56.4543 34.1752 56.4564 34.1514C57.5514 22.8315 54.6232 12.9985 48.6944 4.2816ZM21.7265 28.1874C19.1397 28.1874 17.0083 25.8135 17.0083 22.8982C17.0083 19.9828 19.0984 17.6088 21.7265 17.6088C24.3752 17.6088 26.486 20.0034 26.4446 22.898C26.4446 25.8135 24.3544 28.1874 21.7265 28.1874ZM39.1712 28.1874C36.5845 28.1874 34.453 25.8135 34.453 22.8982C34.453 19.9828 36.5431 17.6088 39.1712 17.6088C41.82 17.6088 43.9307 20.0034 43.8894 22.898C43.8894 25.8135 41.82 28.1874 39.1712 28.1874Z" fill="white"/>
</g>
<defs>
<filter id="filter0_d_174_396" x="0.182617" y="0.90332" width="60.5" height="48" filterUnits="userSpaceOnUse" color-interpolation-filters="sRGB">
<feFlood flood-opacity="0" result="BackgroundImageFix"/>
<feColorMatrix in="SourceAlpha" type="matrix" values="0 0 0 0 0 0 0 0 0 0 0 0 0 0 0 0 0 0 127 0" result="hardAlpha"/>
<feOffset dy="4"/>
<feGaussianBlur stdDeviation="2"/>
<feComposite in2="hardAlpha" operator="out"/>
<feColorMatrix type="matrix" values="0 0 0 0 0 0 0 0 0 0 0 0 0 0 0 0 0 0 0.25 0"/>
<feBlend mode="normal" in2="BackgroundImageFix" result="effect1_dropShadow_174_396"/>
<feBlend mode="normal" in="SourceGraphic" in2="effect1_dropShadow_174_396" result="shape"/>
</filter>
</defs>
</svg>
