<svg width="51" height="51" viewBox="0 0 51 51" fill="none" xmlns="http://www.w3.org/2000/svg">
<g filter="url(#filter0_d_201_15)">
<path d="M25.2833 11.2948C19.6067 11.2948 15.0278 15.8736 15.0278 21.5503C15.0278 27.227 19.6067 31.8058 25.2833 31.8058C30.96 31.8058 35.5388 27.227 35.5388 21.5503C35.5388 15.8736 30.96 11.2948 25.2833 11.2948ZM25.2833 28.2177C21.6149 28.2177 18.6159 25.2276 18.6159 21.5503C18.6159 17.873 21.606 14.8829 25.2833 14.8829C28.9607 14.8829 31.9508 17.873 31.9508 21.5503C31.9508 25.2276 28.9518 28.2177 25.2833 28.2177ZM38.3504 10.8753C38.3504 12.2052 37.2793 13.2674 35.9583 13.2674C34.6284 13.2674 33.5663 12.1963 33.5663 10.8753C33.5663 9.55431 34.6374 8.48324 35.9583 8.48324C37.2793 8.48324 38.3504 9.55431 38.3504 10.8753ZM45.1428 13.3031C44.991 10.0988 44.2591 7.26043 41.9117 4.92193C39.5732 2.58343 36.7349 1.85153 33.5306 1.69087C30.2281 1.50343 20.3296 1.50343 17.0272 1.69087C13.8318 1.84261 10.9935 2.5745 8.64605 4.91301C6.29862 7.25151 5.57565 10.0898 5.41499 13.2941C5.22755 16.5966 5.22755 26.4951 5.41499 29.7975C5.56673 33.0018 6.29862 35.8402 8.64605 38.1787C10.9935 40.5172 13.8229 41.2491 17.0272 41.4097C20.3296 41.5972 30.2281 41.5972 33.5306 41.4097C36.7349 41.258 39.5732 40.5261 41.9117 38.1787C44.2502 35.8402 44.9821 33.0018 45.1428 29.7975C45.3302 26.4951 45.3302 16.6055 45.1428 13.3031ZM40.8763 33.341C40.1801 35.0904 38.8324 36.4382 37.074 37.1433C34.441 38.1876 28.1931 37.9466 25.2833 37.9466C22.3736 37.9466 16.1168 38.1787 13.4926 37.1433C11.7432 36.4471 10.3955 35.0993 9.69035 33.341C8.64605 30.7079 8.88704 24.46 8.88704 21.5503C8.88704 18.6406 8.65498 12.3837 9.69035 9.7596C10.3865 8.01018 11.7343 6.66242 13.4926 5.9573C16.1257 4.91301 22.3736 5.154 25.2833 5.154C28.1931 5.154 34.4499 4.92193 37.074 5.9573C38.8235 6.65349 40.1712 8.00126 40.8763 9.7596C41.9206 12.3926 41.6796 18.6406 41.6796 21.5503C41.6796 24.46 41.9206 30.7169 40.8763 33.341Z" fill="white"/>
<path d="M25.2833 10.7948C19.3305 10.7948 14.5278 15.5975 14.5278 21.5503C14.5278 27.5031 19.3305 32.3058 25.2833 32.3058C31.2362 32.3058 36.0388 27.5031 36.0388 21.5503C36.0388 15.5975 31.2362 10.7948 25.2833 10.7948ZM25.2833 27.7177C21.8906 27.7177 19.1159 24.9511 19.1159 21.5503C19.1159 18.1491 21.8821 15.3829 25.2833 15.3829C28.6845 15.3829 31.4508 18.1491 31.4508 21.5503C31.4508 24.9511 28.676 27.7177 25.2833 27.7177ZM35.9583 13.7674C37.5543 13.7674 38.8504 12.4826 38.8504 10.8753C38.8504 9.27817 37.5555 7.98324 35.9583 7.98324C34.3612 7.98324 33.0663 9.27817 33.0663 10.8753C33.0663 12.4712 34.3511 13.7674 35.9583 13.7674ZM45.6421 13.2771C45.4871 10.0105 44.7354 7.0295 42.2653 4.56838L42.2649 4.56804C39.8038 2.10712 36.8231 1.35553 33.5573 1.19158C30.2351 1.00321 20.3242 1.0032 17.0011 1.19154C13.7428 1.34656 10.7628 2.09852 8.29317 4.55878C5.8219 7.02066 5.0796 10.0025 4.9157 13.2674C4.72733 16.5896 4.72732 26.5004 4.91566 29.8235C5.07066 33.0905 5.82254 36.0716 8.29317 38.5329C10.7628 40.9931 13.7337 41.745 17.0004 41.909C20.3225 42.0974 30.2334 42.0974 33.5565 41.909C36.8235 41.7541 39.8047 41.0022 42.2659 38.5315C44.7266 36.0705 45.4781 33.09 45.642 29.8243C45.8304 26.5022 45.8304 16.6003 45.6421 13.2771ZM40.4118 33.1561C39.7666 34.7772 38.5202 36.0245 36.8883 36.6791C35.6645 37.164 33.5303 37.3662 31.2669 37.4368C29.6648 37.4867 28.053 37.4704 26.7255 37.4569C26.1926 37.4515 25.7056 37.4466 25.2833 37.4466C24.8695 37.4466 24.393 37.4512 23.8719 37.4562C22.5379 37.469 20.9118 37.4846 19.2967 37.4335C17.0315 37.3618 14.8965 37.1595 13.6768 36.6784C12.0562 36.0333 10.8092 34.7871 10.1547 33.1557C9.66971 31.9319 9.46741 29.7975 9.39684 27.5338C9.3469 25.9317 9.36324 24.32 9.3767 22.9925C9.38211 22.4596 9.38704 21.9725 9.38704 21.5503C9.38704 21.1365 9.38247 20.6599 9.37747 20.1388C9.36467 18.8049 9.34906 17.1787 9.40018 15.5637C9.47188 13.2985 9.67416 11.1635 10.1552 9.94375C10.8004 8.32314 12.0465 7.0762 13.6779 6.42172C14.9017 5.93667 17.0361 5.73436 19.2998 5.6638C20.9019 5.61385 22.5137 5.6302 23.8411 5.64366C24.374 5.64906 24.8611 5.654 25.2833 5.654C25.6972 5.654 26.1737 5.64942 26.6948 5.64442C28.0287 5.63162 29.6549 5.61601 31.27 5.66713C33.5352 5.73883 35.6701 5.94111 36.8899 6.42214C38.5106 7.06735 39.7576 8.31362 40.4121 9.94524C40.897 11.1691 41.0993 13.3033 41.1698 15.5668C41.2198 17.1689 41.2034 18.7806 41.19 20.1081C41.1846 20.641 41.1796 21.128 41.1796 21.5503C41.1796 21.9725 41.1846 22.4596 41.19 22.9926C41.2034 24.3209 41.2198 25.9341 41.1698 27.5372C41.0992 29.8029 40.8968 31.9373 40.4118 33.1561Z" stroke="white"/>
</g>
<defs>
<filter id="filter0_d_201_15" x="0.274414" y="0.550293" width="50.0088" height="50" filterUnits="userSpaceOnUse" color-interpolation-filters="sRGB">
<feFlood flood-opacity="0" result="BackgroundImageFix"/>
<feColorMatrix in="SourceAlpha" type="matrix" values="0 0 0 0 0 0 0 0 0 0 0 0 0 0 0 0 0 0 127 0" result="hardAlpha"/>
<feOffset dy="4"/>
<feGaussianBlur stdDeviation="2"/>
<feComposite in2="hardAlpha" operator="out"/>
<feColorMatrix type="matrix" values="0 0 0 0 0 0 0 0 0 0 0 0 0 0 0 0 0 0 0.25 0"/>
<feBlend mode="normal" in2="BackgroundImageFix" result="effect1_dropShadow_201_15"/>
<feBlend mode="normal" in="SourceGraphic" in2="effect1_dropShadow_201_15" result="shape"/>
</filter>
</defs>
</svg>
