<svg width="52" height="49" viewBox="0 0 52 49" fill="none" xmlns="http://www.w3.org/2000/svg">
<g filter="url(#filter0_d_201_13)">
<path d="M42.286 15.8683C40.947 15.8683 39.7687 16.4217 38.9028 17.2876C35.716 15.0828 31.4223 13.6634 26.6645 13.5117L29.1371 2.37131L37.0104 4.13878C37.0104 6.06692 38.5815 7.638 40.5096 7.638C42.4734 7.638 44.0535 6.02229 44.0535 4.09414C44.0535 2.166 42.4824 0.550293 40.5096 0.550293C39.1349 0.550293 37.9477 1.38046 37.3585 2.51414L28.664 0.585999C28.2266 0.469954 27.7982 0.782384 27.6821 1.21979L24.9684 13.5028C20.2463 13.6991 15.9972 15.1185 12.8015 17.3233C11.9356 16.4218 10.7127 15.8683 9.37369 15.8683C4.41052 15.8683 2.78588 22.5275 7.32951 24.8038C7.16883 25.509 7.09742 26.2588 7.09742 27.0087C7.09742 34.4891 15.5241 40.5503 25.87 40.5503C36.2605 40.5503 44.6872 34.4891 44.6872 27.0087C44.6872 26.2588 44.6069 25.4733 44.4105 24.7681C48.8649 22.4829 47.2224 15.8683 42.286 15.8683V15.8683ZM14.5333 25.2769C14.5333 23.3131 16.1043 21.7331 18.0771 21.7331C20.0053 21.7331 21.5763 23.3041 21.5763 25.2769C21.5763 27.2051 20.0053 28.7761 18.0771 28.7761C16.1133 28.7851 14.5333 27.2051 14.5333 25.2769V25.2769ZM33.6629 33.6233C30.4136 36.8725 21.246 36.8725 17.9968 33.6233C17.6397 33.3108 17.6397 32.7574 17.9968 32.4003C18.3092 32.0879 18.8626 32.0879 19.1751 32.4003C21.6567 34.9444 29.887 34.989 32.4757 32.4003C32.7881 32.0879 33.3416 32.0879 33.654 32.4003C34.02 32.7574 34.02 33.3108 33.6629 33.6233ZM33.5915 28.7851C31.6634 28.7851 30.0923 27.214 30.0923 25.2858C30.0923 23.322 31.6634 21.742 33.5915 21.742C35.5553 21.742 37.1354 23.3131 37.1354 25.2858C37.1264 27.2051 35.5553 28.7851 33.5915 28.7851Z" fill="white"/>
</g>
<defs>
<filter id="filter0_d_201_13" x="0.65625" y="0.550293" width="50.3525" height="48" filterUnits="userSpaceOnUse" color-interpolation-filters="sRGB">
<feFlood flood-opacity="0" result="BackgroundImageFix"/>
<feColorMatrix in="SourceAlpha" type="matrix" values="0 0 0 0 0 0 0 0 0 0 0 0 0 0 0 0 0 0 127 0" result="hardAlpha"/>
<feOffset dy="4"/>
<feGaussianBlur stdDeviation="2"/>
<feComposite in2="hardAlpha" operator="out"/>
<feColorMatrix type="matrix" values="0 0 0 0 0 0 0 0 0 0 0 0 0 0 0 0 0 0 0.25 0"/>
<feBlend mode="normal" in2="BackgroundImageFix" result="effect1_dropShadow_201_13"/>
<feBlend mode="normal" in="SourceGraphic" in2="effect1_dropShadow_201_13" result="shape"/>
</filter>
</defs>
</svg>
